<mxfile host="app.diagrams.net" modified="2021-10-25T06:04:15.160Z" agent="5.0 (Windows NT 10.0; Win64; x64) AppleWebKit/537.36 (KHTML, like Gecko) Chrome/94.0.4606.81 Safari/537.36" etag="IYC_JZUaozDjpN-Ba4us" version="15.5.5" type="github">
  <diagram name="Page-1" id="b5b7bab2-c9e2-2cf4-8b2a-24fd1a2a6d21">
    <mxGraphModel dx="1422" dy="706" grid="1" gridSize="10" guides="1" tooltips="1" connect="1" arrows="1" fold="1" page="1" pageScale="1" pageWidth="827" pageHeight="1169" background="none" math="0" shadow="0">
      <root>
        <mxCell id="0" />
        <mxCell id="1" parent="0" />
        <mxCell id="6elNYPJr9ZTZkZdLtBfF-1" value="APP故障" style="rounded=0;whiteSpace=wrap;html=1;" vertex="1" parent="1">
          <mxGeometry x="220" y="120" width="100" height="50" as="geometry" />
        </mxCell>
        <mxCell id="6elNYPJr9ZTZkZdLtBfF-2" value="HUT" style="rounded=0;whiteSpace=wrap;html=1;" vertex="1" parent="1">
          <mxGeometry x="660" y="120" width="120" height="60" as="geometry" />
        </mxCell>
        <mxCell id="6elNYPJr9ZTZkZdLtBfF-3" value="运营平台故障" style="rounded=0;whiteSpace=wrap;html=1;" vertex="1" parent="1">
          <mxGeometry x="1080" y="110" width="120" height="60" as="geometry" />
        </mxCell>
        <mxCell id="6elNYPJr9ZTZkZdLtBfF-4" value="" style="rounded=0;whiteSpace=wrap;html=1;" vertex="1" parent="1">
          <mxGeometry x="120" y="230" width="300" height="120" as="geometry" />
        </mxCell>
        <mxCell id="6elNYPJr9ZTZkZdLtBfF-11" value="OR 或闸" style="text;html=1;strokeColor=none;fillColor=none;align=center;verticalAlign=middle;whiteSpace=wrap;rounded=0;" vertex="1" parent="1">
          <mxGeometry x="1520" y="460" width="60" height="30" as="geometry" />
        </mxCell>
        <mxCell id="6elNYPJr9ZTZkZdLtBfF-13" value="" style="rounded=0;whiteSpace=wrap;html=1;align=left;" vertex="1" parent="1">
          <mxGeometry x="1420" y="410" width="80" height="40" as="geometry" />
        </mxCell>
        <mxCell id="6elNYPJr9ZTZkZdLtBfF-14" value="顶事件" style="text;html=1;strokeColor=none;fillColor=none;align=center;verticalAlign=middle;whiteSpace=wrap;rounded=0;" vertex="1" parent="1">
          <mxGeometry x="1530" y="415" width="60" height="30" as="geometry" />
        </mxCell>
        <mxCell id="6elNYPJr9ZTZkZdLtBfF-15" value="下线检测故障" style="rounded=0;whiteSpace=wrap;html=1;" vertex="1" parent="1">
          <mxGeometry x="1430" y="110" width="120" height="60" as="geometry" />
        </mxCell>
      </root>
    </mxGraphModel>
  </diagram>
</mxfile>
